<svg width="350" height="68" viewBox="0 0 350 68" fill="none" xmlns="http://www.w3.org/2000/svg">
<path d="M104.013 31.5446L103.78 31.8008C102.245 33.5124 99.9727 35.4778 96.0045 35.4778C90.6042 35.4778 86.2123 31.0393 86.2123 25.5808V25.5109C86.2123 20.0128 90.6042 15.5417 96.0045 15.5417C99.9401 15.5417 102.148 17.3511 103.633 18.9276L103.866 19.1605L101.57 21.5917L101.314 21.3239C99.9913 19.9267 98.4287 18.6528 95.9742 18.6528C92.4812 18.6528 89.7333 21.6289 89.7333 25.4294V25.5016C89.7333 29.3207 92.5534 32.3108 96.1536 32.3108C98.1167 32.3108 99.8795 31.4515 101.526 29.6793L101.759 29.4232L104.013 31.5446ZM115.99 15.5417C114.676 15.5273 113.374 15.7754 112.158 16.2713C110.942 16.7673 109.837 17.501 108.908 18.4296C107.98 19.3582 107.246 20.463 106.75 21.679C106.254 22.895 106.006 24.1978 106.02 25.5109V25.5808C106.005 26.8848 106.25 28.1788 106.742 29.3866C107.234 30.5944 107.962 31.6917 108.884 32.6138C109.806 33.536 110.904 34.2644 112.112 34.7563C113.319 35.2481 114.613 35.4934 115.917 35.4778C121.53 35.4778 125.931 31.0998 125.931 25.5109V25.4387C125.943 24.132 125.693 22.836 125.197 21.627C124.702 20.4179 123.969 19.3202 123.043 18.3982C122.117 17.4762 121.016 16.7486 119.805 16.258C118.593 15.7675 117.296 15.5239 115.99 15.5417ZM115.99 32.3084C112.371 32.3084 109.534 29.3184 109.534 25.4993V25.4271C109.534 21.5637 112.28 18.6505 115.917 18.6505C119.555 18.6505 122.407 21.6592 122.407 25.4993V25.5691C122.407 29.4232 119.648 32.3201 115.99 32.3201V32.3084ZM158.803 23.2893V35.04H155.361V23.9414C155.361 20.6323 153.747 18.7344 150.937 18.7344C148.575 18.7344 146.191 20.3901 146.191 24.0904V35.0563H142.784V23.8785C142.784 20.6625 141.154 18.7413 138.396 18.7413C135.639 18.7413 133.616 21.0351 133.616 24.1975V35.0586H130.171V15.9399H133.616V18.3105C134.75 16.8854 136.41 15.5487 139.205 15.5487C141.815 15.5487 143.909 16.7293 145.159 18.8927C146.789 16.6432 148.904 15.5487 151.603 15.5487C156.048 15.5417 158.803 18.5131 158.803 23.301V23.2893ZM174.193 15.53C171.513 15.53 169.303 16.6362 167.491 18.909V15.9329H164.047V40.7524H167.491V32.2176C169.266 34.36 171.518 35.4429 174.193 35.4429C178.618 35.4429 183.345 31.9498 183.345 25.5109V25.4387C183.345 19.0091 178.63 15.5417 174.193 15.5417V15.53ZM173.695 18.6878C177.251 18.6878 179.829 21.5358 179.829 25.462V25.5342C179.829 29.493 177.307 32.2735 173.695 32.2735C170.593 32.2735 167.384 29.7399 167.384 25.4993V25.4271C167.384 21.275 170.661 18.6994 173.695 18.6994V18.6878ZM192.106 19.0441V29.4534C192.106 31.3164 192.979 32.1664 194.854 32.1664C195.731 32.1716 196.597 31.9638 197.376 31.5609L197.876 31.328V34.4485L197.688 34.5463C196.616 35.1056 195.422 35.3889 194.213 35.3707C190.685 35.3707 188.662 33.347 188.662 29.819V19.0557H186.1V15.9329H188.662V10.3743H192.106V15.9329H197.949V19.0557L192.106 19.0441ZM210.384 15.53C209.071 15.516 207.769 15.7643 206.553 16.2604C205.337 16.7564 204.233 17.4903 203.304 18.4188C202.376 19.3474 201.642 20.452 201.147 21.6679C200.651 22.8837 200.403 24.1863 200.417 25.4993V25.5691C200.426 28.2082 201.484 30.7355 203.356 32.595C205.229 34.4546 207.764 35.4941 210.403 35.4848C213.042 35.4755 215.569 34.4183 217.429 32.5456C219.288 30.673 220.328 28.1383 220.318 25.4993V25.4271C220.329 24.1219 220.078 22.8278 219.582 21.6206C219.086 20.4133 218.354 19.3173 217.429 18.3966C216.503 17.476 215.404 16.7493 214.194 16.259C212.984 15.7688 211.689 15.5249 210.384 15.5417V15.53ZM210.384 32.2968C206.765 32.2968 203.931 29.3067 203.931 25.4876V25.4154C203.931 21.5521 206.674 18.6389 210.314 18.6389C213.954 18.6389 216.804 21.6476 216.804 25.4876V25.5575C216.804 29.4232 214.045 32.3201 210.384 32.3201V32.2968ZM233.967 15.53C231.487 15.53 229.489 16.4778 228.01 18.3548V15.9329H224.568V35.0517H228.01V24.1556C228.01 20.9653 230.139 18.7344 233.182 18.7344C236.226 18.7344 237.928 20.6323 237.928 23.9414V35.0517H241.382V23.266C241.382 18.5737 238.464 15.5417 233.967 15.5417V15.53Z" fill="#2E858A"/>
<path d="M113.521 49.2832H120.891V51.5188H116.073V53.086H120.43V55.2051H116.073V58.4863H113.512L113.521 49.2832ZM122.785 53.915V53.8894C122.785 51.244 124.915 49.0969 127.759 49.0969C130.602 49.0969 132.707 51.2161 132.707 53.8615V53.8894C132.707 56.5348 130.576 58.6796 127.733 58.6796C124.89 58.6796 122.785 56.5605 122.785 53.915ZM130.101 53.915V53.8894C130.101 52.5597 129.142 51.4024 127.733 51.4024C126.324 51.4024 125.404 52.5318 125.404 53.8615V53.8894C125.404 55.2168 126.364 56.3765 127.759 56.3765C129.154 56.3765 130.101 55.2447 130.101 53.915ZM134.968 54.4553V49.2832H137.56V54.4064C137.56 55.7361 138.233 56.3672 139.26 56.3672C140.287 56.3672 140.958 55.7617 140.958 54.4716V49.2832H143.55V54.3901C143.55 57.3639 141.852 58.6656 139.232 58.6656C136.612 58.6656 134.959 57.3382 134.959 54.4553H134.968ZM146.114 49.2832H148.496L152.287 54.1526V49.2832H154.814V58.4863H152.576L148.64 53.433V58.4863H146.114V49.2832ZM157.494 49.2832H161.041C164.331 49.2832 166.241 51.1788 166.241 53.8359V53.8615C166.241 56.5209 164.306 58.4956 160.989 58.4956H157.496L157.494 49.2832ZM161.087 56.2321C162.615 56.2321 163.628 55.3891 163.628 53.9034V53.8778C163.628 52.4037 162.615 51.5491 161.087 51.5491H160.049V56.2344L161.087 56.2321ZM171.14 49.2157H173.602L177.523 58.4863H174.78L174.114 56.8562H170.563L169.904 58.4863H167.219L171.14 49.2157ZM173.383 54.8628L172.356 52.243L171.317 54.8628H173.383ZM180.541 51.5188H177.772V49.2832H185.853V51.5188H183.089V58.5049H180.527L180.541 51.5188ZM188.079 49.2832H190.641V58.4863H188.079V49.2832ZM193.065 53.915V53.8894C193.065 51.244 195.198 49.0969 198.042 49.0969C200.885 49.0969 202.99 51.2161 202.99 53.8615V53.8894C202.99 56.5348 200.857 58.6796 198.014 58.6796C195.17 58.6796 193.061 56.5605 193.061 53.915H193.065ZM200.384 53.915V53.8894C200.384 52.5597 199.423 51.4024 198.014 51.4024C196.605 51.4024 195.685 52.5318 195.685 53.8615V53.8894C195.685 55.2168 196.647 56.3765 198.042 56.3765C199.437 56.3765 200.38 55.2447 200.38 53.915H200.384ZM205.37 49.2832H207.752L211.541 54.1526V49.2832H214.068V58.4863H211.83L207.897 53.433V58.4863H205.365L205.37 49.2832Z" fill="#2E858A"/>
<path d="M270.7 34.5467H271.62V27.1111H270.7V26.4312H274.04V27.1111H273.108V34.5467H274.04V35.2267H270.7V34.5467Z" fill="#D63D00"/>
<path d="M277.796 37.9C277.328 37.9067 276.86 37.8701 276.398 37.7906C276.081 37.74 275.775 37.6385 275.49 37.4902C275.285 37.3792 275.115 37.2131 274.999 37.0105C274.897 36.8182 274.845 36.6037 274.847 36.3864C274.844 36.2238 274.884 36.0632 274.962 35.9206C275.039 35.7807 275.141 35.6567 275.264 35.555C275.398 35.4451 275.546 35.3535 275.704 35.2825C275.871 35.2087 276.044 35.1495 276.221 35.1056V35.0567C275.969 34.9962 275.743 34.8547 275.579 34.6538C275.42 34.4439 275.337 34.1858 275.346 33.9226C275.337 33.7647 275.363 33.6069 275.424 33.4606C275.484 33.3143 275.576 33.1833 275.693 33.0773C275.931 32.8724 276.213 32.7257 276.517 32.6488V32.5999C276.135 32.4482 275.804 32.1924 275.56 31.8617C275.317 31.5136 275.193 31.0962 275.206 30.6717C275.201 30.358 275.268 30.0474 275.402 29.7635C275.529 29.499 275.715 29.2666 275.944 29.0835C276.194 28.896 276.477 28.7584 276.778 28.6783C277.122 28.577 277.479 28.5276 277.838 28.5316C278.16 28.5256 278.482 28.564 278.795 28.6457C279.049 28.7197 279.292 28.8303 279.514 28.9741C279.531 28.4943 279.635 28.1567 279.829 27.9587C279.925 27.8606 280.041 27.7836 280.169 27.7327C280.297 27.6818 280.434 27.6581 280.571 27.663C280.763 27.6562 280.95 27.7219 281.095 27.847C281.165 27.9114 281.22 27.9906 281.256 28.0787C281.292 28.1669 281.308 28.2619 281.303 28.3569C281.306 28.4486 281.29 28.54 281.256 28.6253C281.223 28.7106 281.172 28.7881 281.107 28.853C281.036 28.9202 280.951 28.9723 280.859 29.0059C280.767 29.0395 280.669 29.054 280.571 29.0486C280.454 29.0524 280.338 29.0294 280.231 28.9813C280.124 28.9333 280.029 28.8615 279.954 28.7715H279.903V29.2884C280.065 29.4538 280.201 29.6431 280.306 29.8497C280.433 30.1104 280.494 30.3983 280.483 30.688C280.488 31.0009 280.421 31.3109 280.287 31.5939C280.16 31.8603 279.972 32.0937 279.74 32.2762C279.489 32.4683 279.205 32.6127 278.902 32.7023C278.557 32.808 278.198 32.8598 277.838 32.856C277.701 32.8561 277.564 32.8475 277.428 32.8304C277.297 32.8118 277.169 32.7908 277.043 32.7675C276.875 32.8213 276.72 32.9111 276.589 33.0307C276.529 33.0846 276.481 33.1507 276.449 33.2246C276.416 33.2985 276.4 33.3784 276.401 33.4592C276.396 33.5436 276.415 33.6278 276.456 33.7017C276.497 33.7756 276.559 33.8361 276.634 33.876C276.865 33.9764 277.118 34.0195 277.369 34.0018H278.844C279.659 34.0018 280.241 34.1601 280.62 34.4815C280.806 34.6434 280.953 34.8453 281.049 35.0719C281.145 35.2986 281.189 35.5442 281.177 35.7902C281.184 36.0992 281.11 36.4047 280.963 36.6766C280.816 36.9486 280.601 37.1776 280.339 37.3411C279.767 37.7122 278.92 37.8985 277.796 37.9ZM276.03 36.2699C276.023 36.4115 276.055 36.5523 276.125 36.676C276.194 36.7997 276.297 36.9012 276.422 36.9685C276.765 37.1405 277.147 37.2208 277.53 37.2014H278.21C278.666 37.227 279.12 37.1331 279.528 36.9289C279.669 36.8581 279.787 36.7493 279.87 36.6147C279.952 36.4801 279.995 36.3252 279.994 36.1675C280.004 36.0407 279.982 35.9134 279.928 35.7982C279.874 35.683 279.791 35.5839 279.687 35.5108C279.376 35.3544 279.029 35.2852 278.683 35.3105H276.643C276.457 35.3926 276.3 35.5277 276.191 35.6988C276.082 35.8699 276.026 36.0694 276.03 36.2723V36.2699ZM277.845 32.1621C278.01 32.175 278.177 32.1527 278.334 32.0965C278.49 32.0403 278.633 31.9515 278.753 31.836C278.97 31.5706 279.078 31.2327 279.055 30.8906V30.4738C279.078 30.1316 278.97 29.7937 278.753 29.5283C278.497 29.3176 278.177 29.2024 277.846 29.2024C277.515 29.2024 277.194 29.3176 276.939 29.5283C276.721 29.7931 276.612 30.1315 276.636 30.4738V30.8906C276.612 31.2329 276.721 31.5712 276.939 31.836C277.057 31.9535 277.199 32.0442 277.355 32.1021C277.511 32.1599 277.678 32.1836 277.845 32.1714V32.1621Z" fill="#D63D00"/>
<path d="M281.764 34.5464H282.621V29.6817L281.764 29.5187V28.9644L283.995 28.522V29.6863H284.058C284.179 29.3598 284.397 29.0779 284.682 28.8783C284.848 28.7635 285.031 28.6748 285.225 28.6151C285.45 28.544 285.686 28.5094 285.923 28.5127C286.721 28.5127 287.288 28.7168 287.623 29.1251C287.958 29.5334 288.127 30.1443 288.128 30.9578V34.5464H288.985V35.2263H285.886V34.5464H286.717V31.0533C286.717 30.5053 286.612 30.1063 286.403 29.8563C286.276 29.7219 286.121 29.6179 285.948 29.5521C285.775 29.4864 285.59 29.4606 285.406 29.4767C285.238 29.4768 285.07 29.5003 284.908 29.5466C284.749 29.5903 284.6 29.6629 284.468 29.7608C284.339 29.8567 284.231 29.979 284.153 30.1195C284.069 30.2783 284.027 30.4565 284.032 30.6364V34.5464H284.864V35.2263H281.764V34.5464Z" fill="#D63D00"/>
<path d="M289.677 34.5469H290.534V29.6822L289.677 29.5192V28.965L291.947 28.5225V34.5469H292.802V35.2269H289.677V34.5469ZM291.242 27.4537C291.126 27.4605 291.011 27.4434 290.902 27.4033C290.793 27.3632 290.694 27.3011 290.611 27.2208C290.534 27.1419 290.473 27.0482 290.433 26.9454C290.393 26.8425 290.374 26.7326 290.378 26.6223V26.5478C290.375 26.4375 290.394 26.3277 290.434 26.2249C290.474 26.1221 290.534 26.0283 290.611 25.9493C290.786 25.7991 291.01 25.7166 291.241 25.7166C291.472 25.7166 291.695 25.7991 291.871 25.9493C291.948 26.0283 292.008 26.122 292.048 26.2248C292.088 26.3276 292.107 26.4375 292.104 26.5478V26.6223C292.107 26.7326 292.088 26.8425 292.048 26.9454C292.008 27.0482 291.948 27.1419 291.871 27.2208C291.788 27.3009 291.689 27.3629 291.581 27.403C291.472 27.4431 291.357 27.4603 291.242 27.4537Z" fill="#D63D00"/>
<path d="M295.513 35.3288C295.033 35.3288 294.698 35.2263 294.504 35.026C294.289 34.7558 294.186 34.4132 294.216 34.0689V29.4115H293.356V28.678H293.573C293.8 28.7019 294.028 28.6441 294.216 28.5149C294.348 28.3809 294.447 28.2173 294.504 28.0376L294.896 26.9268H295.627V28.678H297.201V29.4092H295.627V34.4997H297.201V35.054C296.977 35.1439 296.742 35.2049 296.502 35.2356C296.176 35.2953 295.845 35.3264 295.513 35.3288Z" fill="#D63D00"/>
<path d="M300.829 35.3778C300.384 35.3856 299.943 35.3024 299.532 35.1333C299.164 34.9758 298.837 34.7369 298.575 34.4347C298.305 34.1174 298.101 33.7492 297.976 33.3518C297.831 32.9004 297.761 32.4286 297.766 31.9546C297.76 31.4751 297.835 30.9981 297.988 30.5434C298.121 30.148 298.331 29.7826 298.605 29.4675C298.866 29.1695 299.189 28.9312 299.55 28.7689C299.93 28.6022 300.34 28.5181 300.754 28.5221C301.164 28.5159 301.571 28.5911 301.951 28.7433C302.297 28.8846 302.607 29.101 302.859 29.3767C303.114 29.6585 303.309 29.9888 303.432 30.3478C303.572 30.753 303.64 31.1792 303.635 31.6076V31.9383H299.299V32.3412C299.264 32.8913 299.439 33.4343 299.79 33.8595C299.959 34.0394 300.165 34.1804 300.394 34.2729C300.623 34.3653 300.869 34.407 301.115 34.3951C301.5 34.42 301.883 34.3255 302.212 34.1247C302.542 33.9238 302.801 33.6263 302.955 33.2727L303.495 33.601C303.325 34.0822 303.019 34.5031 302.612 34.8119C302.38 34.9882 302.12 35.1265 301.844 35.2218C301.517 35.332 301.174 35.3848 300.829 35.3778ZM299.292 31.27H302.161V31.1326C302.188 30.6426 302.067 30.1558 301.814 29.7353C301.693 29.569 301.532 29.4362 301.346 29.3494C301.16 29.2626 300.954 29.2247 300.75 29.2393C300.543 29.2277 300.337 29.2657 300.148 29.3499C299.959 29.4342 299.794 29.5623 299.664 29.7237C299.387 30.1345 299.254 30.6262 299.287 31.1209L299.292 31.27Z" fill="#D63D00"/>
<path d="M310.975 35.3783C310.43 35.3872 309.889 35.2734 309.394 35.0453C308.932 34.8273 308.525 34.5091 308.202 34.1138C307.86 33.6893 307.605 33.2019 307.452 32.6793C307.274 32.0801 307.187 31.4577 307.193 30.8326C307.183 30.1727 307.279 29.5153 307.477 28.8858C307.641 28.3634 307.904 27.8778 308.253 27.456C308.569 27.0785 308.967 26.7782 309.417 26.5781C309.877 26.3798 310.372 26.2791 310.873 26.2823C311.328 26.2616 311.781 26.3561 312.191 26.5571C312.476 26.6929 312.711 26.9144 312.864 27.1905H312.929V26.4337H314.075V29.1047H312.929V28.4853C312.935 28.2856 312.893 28.0873 312.806 27.9073C312.72 27.7273 312.591 27.5709 312.431 27.4514C312.035 27.174 311.558 27.0378 311.075 27.0648C310.735 27.0569 310.397 27.1237 310.086 27.2604C309.809 27.3838 309.569 27.5753 309.387 27.817C309.196 28.0744 309.057 28.3662 308.977 28.6763C308.881 29.033 308.834 29.4013 308.837 29.7708V31.7432C308.837 32.611 309.054 33.277 309.487 33.7412C309.915 34.1406 310.467 34.3826 311.051 34.4275C311.635 34.4723 312.216 34.3174 312.701 33.9881C313.092 33.6885 313.391 33.2851 313.565 32.8237L314.156 33.1381C314.057 33.4285 313.919 33.7042 313.746 33.9578C313.561 34.2313 313.334 34.4741 313.073 34.6774C312.473 35.1396 311.735 35.3858 310.977 35.376L310.975 35.3783Z" fill="#D63D00"/>
<path d="M314.955 34.5468H315.815V26.8155L314.955 26.6501V26.0959L317.226 25.6558V29.7007H317.289C317.344 29.5468 317.422 29.4022 317.521 29.2723C317.628 29.1261 317.758 28.9979 317.906 28.8927C318.068 28.7789 318.246 28.6902 318.434 28.6295C318.654 28.5589 318.884 28.5243 319.114 28.5271C319.914 28.5271 320.481 28.7312 320.817 29.1395C321.152 29.5478 321.32 30.1587 321.32 30.9722V34.5468H322.188V35.2268H319.089V34.5468H319.92V31.0537C319.92 30.5057 319.815 30.1067 319.606 29.8568C319.479 29.7222 319.324 29.6181 319.151 29.5523C318.978 29.4866 318.793 29.4609 318.609 29.4772C318.441 29.4772 318.274 29.5007 318.113 29.547C317.954 29.5907 317.804 29.6633 317.67 29.7613C317.541 29.8571 317.434 29.9794 317.356 30.1199C317.273 30.2794 317.232 30.4573 317.237 30.6369V34.5468H318.069V35.2268H314.967L314.955 34.5468Z" fill="#D63D00"/>
<path d="M324.799 35.3779C324.145 35.3779 323.651 35.2164 323.318 34.8935C323.148 34.7181 323.015 34.5095 322.93 34.2807C322.844 34.0519 322.806 33.8078 322.819 33.5638C322.803 33.2846 322.857 33.0056 322.976 32.7526C323.095 32.4995 323.276 32.2804 323.502 32.1153C323.953 31.787 324.694 31.624 325.719 31.624H326.627V30.774C326.653 30.3581 326.532 29.9462 326.287 29.6096C326.149 29.4668 325.981 29.3565 325.796 29.2868C325.61 29.2171 325.411 29.1897 325.213 29.2068C324.893 29.1877 324.573 29.2485 324.282 29.3838V29.435C324.385 29.4849 324.474 29.5602 324.54 29.6539C324.626 29.7823 324.668 29.9351 324.659 30.0894C324.664 30.1931 324.648 30.2968 324.613 30.3944C324.577 30.4919 324.522 30.5814 324.452 30.6576C324.372 30.732 324.277 30.7893 324.175 30.8257C324.072 30.8622 323.962 30.8771 323.853 30.8695C323.752 30.8724 323.651 30.8545 323.557 30.8168C323.463 30.7792 323.377 30.7226 323.306 30.6506C323.228 30.5719 323.168 30.4783 323.128 30.3754C323.088 30.2725 323.069 30.1625 323.073 30.0521C323.074 29.8525 323.133 29.6576 323.243 29.4909C323.372 29.2949 323.542 29.1296 323.742 29.0065C323.988 28.8505 324.259 28.7357 324.543 28.6665C324.899 28.5768 325.265 28.5338 325.632 28.5384C326.422 28.5384 327.03 28.7247 327.421 29.0927C327.627 29.2926 327.788 29.5346 327.892 29.8022C327.997 30.0698 328.043 30.3568 328.026 30.6436V34.5745H328.883V35.1427C328.736 35.2206 328.579 35.28 328.418 35.3196C328.225 35.3712 328.026 35.3963 327.826 35.3942C327.679 35.4149 327.53 35.4024 327.389 35.3576C327.248 35.3128 327.119 35.2368 327.011 35.1353C326.903 35.0337 326.819 34.9093 326.766 34.7711C326.713 34.6329 326.692 34.4845 326.704 34.3369V34.2671H326.641C326.58 34.4118 326.502 34.5486 326.408 34.6746C326.309 34.8139 326.188 34.9358 326.049 35.0355C325.887 35.1528 325.706 35.2403 325.514 35.294C325.28 35.355 325.04 35.3832 324.799 35.3779ZM325.353 34.4953C325.678 34.5097 325.998 34.4172 326.266 34.2321C326.392 34.1274 326.491 33.9932 326.554 33.8414C326.617 33.6897 326.642 33.5248 326.627 33.3612V32.2411H325.87C325.274 32.2411 324.858 32.3373 324.622 32.5298C324.503 32.6318 324.409 32.7599 324.348 32.9042C324.287 33.0484 324.26 33.2049 324.27 33.3612V33.5941C324.26 33.7216 324.281 33.8495 324.332 33.9671C324.382 34.0847 324.46 34.1884 324.559 34.2694C324.791 34.4316 325.07 34.5126 325.353 34.4999V34.4953Z" fill="#D63D00"/>
<path d="M329.587 34.5464H330.444V29.6817L329.587 29.5187V28.9644L331.817 28.522V29.6863H331.88C332.001 29.3598 332.219 29.0779 332.504 28.8783C332.671 28.764 332.854 28.6753 333.047 28.6151C333.273 28.544 333.509 28.5094 333.746 28.5127C334.544 28.5127 335.11 28.7176 335.448 29.1251C335.786 29.5326 335.951 30.1428 335.951 30.9578V34.5464H336.808V35.2263H333.708V34.5464H334.53V31.0533C334.53 30.5053 334.426 30.1063 334.216 29.8563C334.09 29.7217 333.934 29.6176 333.761 29.5519C333.589 29.4861 333.403 29.4604 333.219 29.4767C333.051 29.4769 332.883 29.5004 332.721 29.5466C332.562 29.5903 332.413 29.6629 332.281 29.7608C332.152 29.8567 332.045 29.979 331.967 30.1195C331.882 30.2783 331.84 30.4565 331.845 30.6364V34.5464H332.677V35.2263H329.577L329.587 34.5464Z" fill="#D63D00"/>
<path d="M340.336 37.9002C339.868 37.9067 339.4 37.87 338.938 37.7908C338.622 37.7406 338.316 37.6391 338.033 37.4904C337.826 37.3808 337.656 37.2143 337.541 37.0106C337.44 36.8184 337.388 36.6039 337.39 36.3866C337.387 36.224 337.426 36.0634 337.504 35.9208C337.579 35.7805 337.681 35.6563 337.804 35.5552C337.94 35.4458 338.088 35.3542 338.247 35.2827C338.414 35.2089 338.587 35.1497 338.764 35.1058V35.0569C338.511 34.9964 338.285 34.8549 338.121 34.654C337.963 34.4436 337.881 34.1858 337.888 33.9228C337.88 33.765 337.907 33.6073 337.967 33.4611C338.027 33.3149 338.118 33.1838 338.235 33.0775C338.474 32.8721 338.757 32.7254 339.062 32.649V32.6001C338.679 32.449 338.347 32.1931 338.102 31.8619C337.86 31.5135 337.737 31.0961 337.751 30.6719C337.746 30.3582 337.813 30.0476 337.946 29.7637C338.073 29.4993 338.258 29.2669 338.487 29.0837C338.733 28.8919 339.013 28.7488 339.313 28.6622C339.656 28.5609 340.013 28.5115 340.371 28.5155C340.693 28.5091 341.015 28.5475 341.328 28.6296C341.582 28.7036 341.825 28.8142 342.047 28.958C342.064 28.4782 342.168 28.1406 342.362 27.9426C342.459 27.8444 342.575 27.7674 342.703 27.7165C342.831 27.6656 342.969 27.6419 343.107 27.6469C343.298 27.6397 343.484 27.7055 343.628 27.8309C343.699 27.895 343.754 27.9741 343.79 28.0623C343.826 28.1506 343.841 28.2458 343.836 28.3408C343.839 28.4323 343.823 28.5234 343.79 28.6087C343.757 28.694 343.707 28.7716 343.642 28.8369C343.571 28.904 343.487 28.956 343.395 28.9896C343.303 29.0232 343.205 29.0378 343.107 29.0325C342.989 29.0363 342.872 29.0133 342.765 28.9653C342.658 28.9173 342.563 28.8455 342.487 28.7554H342.448V29.2723C342.609 29.4383 342.745 29.6275 342.851 29.8336C342.976 30.0946 343.037 30.3823 343.028 30.6719C343.033 30.9848 342.966 31.2948 342.832 31.5778C342.704 31.8442 342.517 32.0776 342.285 32.2601C342.033 32.4517 341.749 32.5961 341.446 32.6862C341.101 32.7918 340.741 32.8437 340.38 32.8399C340.243 32.8399 340.106 32.8313 339.97 32.8143C339.843 32.7957 339.715 32.7747 339.586 32.7514C339.418 32.8057 339.264 32.8955 339.134 33.0146C339.073 33.068 339.025 33.1339 338.992 33.2079C338.959 33.2819 338.942 33.3621 338.943 33.4431C338.937 33.5263 338.954 33.6097 338.993 33.6834C339.033 33.7572 339.092 33.8184 339.164 33.8599C339.397 33.9602 339.65 34.0034 339.903 33.9856H341.377C342.192 33.9856 342.774 34.144 343.153 34.4654C343.338 34.6281 343.484 34.8301 343.579 35.0567C343.675 35.2832 343.719 35.5284 343.708 35.7741C343.715 36.0832 343.641 36.3889 343.494 36.6609C343.347 36.9329 343.132 37.1618 342.869 37.325C342.306 37.7069 341.461 37.8987 340.336 37.9002ZM338.573 36.2701C338.565 36.4114 338.597 36.5521 338.666 36.6758C338.735 36.7995 338.837 36.9011 338.962 36.9687C339.305 37.1405 339.687 37.2207 340.07 37.2016H340.752C341.207 37.2273 341.661 37.1333 342.068 36.9291C342.209 36.8585 342.328 36.7497 342.41 36.6151C342.492 36.4805 342.535 36.3255 342.534 36.1677C342.545 36.0406 342.522 35.913 342.467 35.7977C342.413 35.6824 342.329 35.5835 342.224 35.511C341.915 35.3545 341.569 35.2853 341.223 35.3107H339.188C339.001 35.3922 338.844 35.5271 338.734 35.6983C338.625 35.8695 338.569 36.0693 338.573 36.2724V36.2701ZM340.387 32.1623C340.552 32.1757 340.719 32.1535 340.875 32.0973C341.031 32.041 341.174 31.952 341.293 31.8362C341.511 31.5714 341.619 31.2331 341.595 30.8908V30.4739C341.619 30.1317 341.511 29.7933 341.293 29.5285C341.037 29.3178 340.717 29.2026 340.386 29.2026C340.055 29.2026 339.734 29.3178 339.479 29.5285C339.262 29.7939 339.153 30.1318 339.176 30.4739V30.8908C339.153 31.2329 339.262 31.5708 339.479 31.8362C339.598 31.9534 339.74 32.0439 339.897 32.1017C340.053 32.1595 340.22 32.1833 340.387 32.1716V32.1623Z" fill="#D63D00"/>
<path d="M347.191 35.3778C346.747 35.3863 346.305 35.303 345.894 35.1333C345.525 34.9765 345.197 34.7375 344.935 34.4347C344.666 34.1168 344.462 33.7488 344.336 33.3518C344.194 32.9 344.124 32.4284 344.129 31.9546C344.127 31.4745 344.205 30.9974 344.362 30.5434C344.495 30.1476 344.704 29.782 344.979 29.4675C345.24 29.1689 345.562 28.9305 345.924 28.7689C346.304 28.6022 346.714 28.5181 347.128 28.5221C347.538 28.5159 347.945 28.5911 348.325 28.7433C348.667 28.8834 348.974 29.0964 349.224 29.3674C349.48 29.6486 349.676 29.979 349.799 30.3385C349.937 30.744 350.005 31.17 350 31.5983V31.9383H345.666V32.3412C345.63 32.8915 345.806 33.4347 346.157 33.8595C346.326 34.0393 346.531 34.1803 346.76 34.2728C346.988 34.3653 347.234 34.407 347.48 34.3951C347.897 34.415 348.309 34.3025 348.658 34.0737C348.947 33.8717 349.176 33.5948 349.32 33.2727L349.862 33.601C349.78 33.8296 349.668 34.0458 349.527 34.2437C349.375 34.4603 349.19 34.6519 348.98 34.8119C348.746 34.9877 348.487 35.126 348.211 35.2218C347.883 35.3322 347.538 35.385 347.191 35.3778ZM345.654 31.27H348.526V31.1326C348.553 30.6428 348.433 30.156 348.181 29.7353C348.06 29.5694 347.899 29.4368 347.713 29.35C347.527 29.2633 347.322 29.2252 347.117 29.2393C346.91 29.2272 346.704 29.2648 346.515 29.3491C346.326 29.4334 346.16 29.5619 346.032 29.7237C345.754 30.1345 345.621 30.6262 345.654 31.1209V31.27Z" fill="#D63D00"/>
<path d="M261.835 0H260.61V67.9356H261.835V0Z" fill="#D63D00"/>
<path d="M26.1545 43.8749L26.1938 43.898C26.1938 43.8749 26.2077 43.8541 26.2123 43.8311L26.1545 43.8749Z" fill="#FFFF00"/>
<path d="M26.1938 24.1301L26.1545 24.1532L26.2123 24.1971C26.2077 24.174 26.2077 24.1532 26.1938 24.1301Z" fill="#FFFF00"/>
<path d="M44.868 24.1532L44.8288 24.1301C44.8288 24.1532 44.8172 24.174 44.8103 24.1971L44.868 24.1532Z" fill="#FFFF00"/>
<path d="M44.8378 43.898L44.877 43.8749L44.8193 43.8311C44.817 43.8541 44.8239 43.8749 44.8378 43.898Z" fill="#FFFF00"/>
<path d="M22.1008 30.7595V30.9388L22.3616 30.869C22.2732 30.8364 22.1893 30.7968 22.1008 30.7595Z" fill="#FFFF00"/>
<path d="M48.9233 37.2692V37.0898L48.6648 37.1597L48.9233 37.2692Z" fill="#FFFF00"/>
<path d="M22.1008 37.0898V37.2692L22.3616 37.1597L22.1008 37.0898Z" fill="#FFFF00"/>
<path d="M71.0127 34.0156C71.0159 37.6835 69.9269 41.2694 67.8847 44.3162C65.8424 47.363 62.9392 49.7328 59.5452 51.1236C56.1511 52.5144 52.4199 52.8632 48.8268 52.1256C45.2338 51.388 41.9417 49.5974 39.3701 46.9819L44.8379 43.8987L44.8775 43.8754C47.375 45.8163 50.5159 46.7375 53.6661 46.453C56.8164 46.1685 59.7413 44.6995 61.8507 42.3425C63.96 39.9854 65.0967 36.916 65.0311 33.7536C64.9656 30.5912 63.7028 27.5715 61.4976 25.3039C62.261 23.1008 62.5976 20.7725 62.4896 18.4435C65.1039 20.1143 67.2551 22.4168 68.7448 25.1384C70.2344 27.86 71.0144 30.913 71.0127 34.0156ZM44.8682 24.1535C46.4509 22.9183 48.308 22.0829 50.2822 21.7181C52.2564 21.3533 54.2894 21.4697 56.2091 22.0576C56.6748 20.0125 56.6179 17.883 56.0437 15.8656C52.4416 15.1662 48.7129 15.5536 45.3316 16.9787C45.6353 19.3719 45.4676 21.8014 44.8379 24.1302L44.8682 24.1535Z" fill="#2E858A"/>
<path d="M45.3427 51.0339C45.0399 53.4836 44.248 55.8475 43.014 57.9852C42.424 59.0048 41.7386 59.9662 40.967 60.8565C38.9339 60.3479 37.0615 59.3357 35.5225 57.913C37.0003 56.5384 38.1229 54.8261 38.7941 52.9228C39.4653 51.0195 39.6652 48.9818 39.3765 46.9843C41.08 48.7129 43.1073 50.089 45.3427 51.0339ZM30.0663 60.8565C27.016 61.6335 23.7847 61.23 21.0191 59.7267C18.2535 58.2234 16.1576 55.7313 15.1507 52.7489C14.1438 49.7665 14.3003 46.5139 15.5888 43.6419C16.8772 40.77 19.2027 38.4905 22.0998 37.2596V30.9395C19.6036 31.6281 17.28 32.8337 15.2797 34.4781C13.2794 36.1225 11.647 38.1689 10.4884 40.4847C9.32982 42.8005 8.6709 45.334 8.55437 47.9208C8.43783 50.5076 8.86629 53.0901 9.81196 55.5007C10.7576 57.9113 12.1994 60.0962 14.0437 61.9138C15.8881 63.7313 18.0939 65.141 20.5181 66.0513C22.9422 66.9616 25.5307 67.3522 28.1155 67.1979C30.7004 67.0435 33.2239 66.3476 35.5225 65.1553C33.4476 64.0853 31.5958 62.6294 30.0663 60.8658V60.8565Z" fill="#FF8756"/>
<path d="M48.9233 30.9388V30.7595C48.8371 30.7968 48.751 30.8364 48.6648 30.869L48.9233 30.9388Z" fill="#FFFF00"/>
<path d="M26.1944 43.8982C25.561 46.2206 25.3862 48.6441 25.6798 51.0334C22.302 52.4561 18.5777 52.8435 14.9793 52.1465C14.4059 50.1289 14.3498 47.9994 14.8163 45.9544C16.7353 46.5443 18.7684 46.6618 20.7426 46.2969C22.7167 45.932 24.5735 45.0955 26.1548 43.8586L26.1944 43.8982ZM25.6798 16.9852C21.4122 15.1802 16.6224 15.0442 12.2592 16.6041C7.89614 18.164 4.27819 21.3059 2.12228 25.4074C-0.0336197 29.5088 -0.570157 34.2705 0.618986 38.7489C1.80813 43.2273 4.63618 47.0956 8.54276 49.5872C8.43471 47.2582 8.77139 44.9299 9.53479 42.7268C7.31968 40.4615 6.04838 37.4389 5.97839 34.2713C5.9084 31.1037 7.04496 28.0279 9.15786 25.6669C11.2707 23.306 14.202 21.8363 17.3579 21.5556C20.5138 21.275 23.6585 22.2043 26.1548 24.1553L26.1944 24.1321L31.6553 21.0512C29.9503 19.316 27.9196 17.9343 25.6798 16.9852Z" fill="#2E858A"/>
<path d="M30.0672 7.16282C32.1054 7.6724 33.982 8.68802 35.5234 10.1156C34.0452 11.4904 32.9224 13.2031 32.2512 15.1069C31.58 17.0106 31.3803 19.0488 31.6693 21.0466C29.9641 19.3123 27.9335 17.9314 25.6938 16.983C26.1496 13.3461 27.6768 9.927 30.0811 7.16049L30.0672 7.16282ZM62.4806 18.4431C62.341 15.3448 61.4237 12.3315 59.8132 9.68107C58.2026 7.0306 55.9507 4.82826 53.2651 3.2771C50.5795 1.72593 47.5465 0.875885 44.4459 0.80532C41.3453 0.734756 38.2768 1.44595 35.5234 2.87333C37.5944 3.94502 39.4429 5.4007 40.9702 7.16282C44.0201 6.38747 47.2503 6.79208 50.0147 8.29574C52.7792 9.7994 54.874 12.2912 55.8804 15.2729C56.8867 18.2546 56.7303 21.5062 55.4425 24.3776C54.1547 27.2489 51.8304 29.5282 48.9344 30.7597V30.939C51.1948 31.5588 53.3167 32.6028 55.187 34.0152C57.5747 32.2052 59.487 29.8424 60.7595 27.1298C62.032 24.4173 62.6266 21.4363 62.4922 18.4431H62.4806Z" fill="#FF8756"/>
<path d="M22.101 30.76V30.9393C19.8408 31.5596 17.719 32.6035 15.8484 34.0155C12.9265 31.8021 10.7289 28.7696 9.53521 25.3038C10.9961 23.7981 12.8124 22.6842 14.8167 22.0646C15.2561 23.987 16.1455 25.7777 17.4118 27.2894C18.6782 28.801 20.2853 29.9905 22.101 30.76ZM45.3438 16.9856C45.0407 14.5361 44.2488 12.1723 43.0151 10.0344C42.4251 9.01475 41.7398 8.05334 40.9682 7.16311C38.5469 4.37117 35.3439 2.3695 31.7732 1.41677C28.2025 0.464026 24.4281 0.603999 20.9378 1.8186C17.4475 3.03319 14.4016 5.2666 12.1937 8.23021C9.98585 11.1938 8.71748 14.7515 8.55249 18.4434C10.5168 17.1904 12.7009 16.3212 14.9891 15.8818C15.8634 12.8474 17.8546 10.2568 20.5619 8.63121C23.2693 7.00567 26.4919 6.46586 29.5811 7.12043C32.6704 7.775 35.3972 9.57536 37.2126 12.1592C39.028 14.7431 39.7975 17.9186 39.366 21.0469L44.8385 24.1301C45.4712 21.8044 45.6429 19.3773 45.3438 16.9856Z" fill="#D63D00"/>
<path d="M48.9226 37.2689V30.9395C51.8193 31.7328 54.4786 33.2209 56.67 35.2746C58.8613 37.3284 60.5185 39.8859 61.4977 42.7251C60.0376 44.2307 58.2221 45.3446 56.2185 45.9643C55.7777 44.0422 54.8874 42.2519 53.6208 40.7404C52.3542 39.2289 50.7473 38.0392 48.9319 37.2689H48.9226ZM56.0438 52.1564C55.184 55.2087 53.1954 57.8198 50.4814 59.46C47.7673 61.1003 44.5311 61.6468 41.4289 60.9889C38.3267 60.331 35.5909 58.5178 33.7764 55.9171C31.9618 53.3164 31.2043 50.1229 31.6575 46.9843L26.1967 43.9011C25.512 46.4087 25.3641 49.0326 25.7627 51.6013C26.1613 54.17 27.0973 56.6257 28.5097 58.808C29.922 60.9903 31.7789 62.85 33.9591 64.2657C36.1392 65.6814 38.5935 66.6211 41.1616 67.0236C43.7296 67.4261 46.3538 67.2822 48.8624 66.6013C51.3711 65.9205 53.708 64.718 55.7202 63.0724C57.7325 61.4269 59.3749 59.3752 60.5402 57.0516C61.7055 54.728 62.3674 52.1847 62.4827 49.5878C60.5194 50.8459 58.334 51.7177 56.0438 52.1564Z" fill="#D63D00"/>
</svg>
